<svg width="71.701" height="66.9" viewBox="0 0 71.701 66.9" xmlns="http://www.w3.org/2000/svg"><g id="svgGroup" stroke-linecap="round" fill-rule="evenodd" font-size="9pt" stroke="#222" stroke-width="0.25mm" fill="none" style="stroke:#ddd;stroke-width:0.25mm;fill:none"><path d="M 71.701 62.8 L 71.701 63.6 A 13.625 13.625 0 0 1 71.68 64.386 Q 71.58 66.1 71.001 66.1 A 21.286 21.286 0 0 1 70.055 66.075 Q 68.579 66.008 66.019 65.761 A 188.784 188.784 0 0 1 65.401 65.7 A 61.498 61.498 0 0 0 62.316 65.358 Q 60.432 65.2 58.801 65.2 A 1.984 1.984 0 0 1 57.236 64.406 Q 56.597 63.64 56.182 62.137 A 14.873 14.873 0 0 1 55.901 60.9 A 54.434 54.434 0 0 1 55.44 57.92 Q 55.006 54.558 54.738 49.96 A 184.474 184.474 0 0 1 54.701 49.3 A 70.578 70.578 0 0 0 54.596 46.853 Q 54.463 44.675 54.201 43.1 A 8.959 8.959 0 0 1 54.011 42.422 Q 53.651 40.951 53.11 37.561 A 191.601 191.601 0 0 1 53.101 37.5 A 11.071 11.071 0 0 1 53.013 37.114 Q 52.815 36.172 52.42 33.858 A 316.814 316.814 0 0 1 52.351 33.45 Q 51.801 30.2 51.301 28.5 Q 50.853 26.979 50.566 26.819 A 0.134 0.134 0 0 0 50.501 26.8 Q 50.101 26.8 48.501 31.3 A 74.17 74.17 0 0 0 48.189 32.146 Q 48.028 32.595 47.853 33.092 A 114.163 114.163 0 0 0 47.851 33.1 Q 47.55 33.958 47.213 34.596 A 7.193 7.193 0 0 1 47.101 34.8 Q 46.648 35.629 45.514 37.084 A 55.961 55.961 0 0 1 44.701 38.1 Q 42.601 40.7 41.901 41.9 Q 41.901 42.8 40.751 45.05 A 31.745 31.745 0 0 1 38.994 48.078 A 27.437 27.437 0 0 1 38.251 49.15 A 14.586 14.586 0 0 1 37.767 49.779 Q 36.988 50.732 36.471 50.941 A 0.725 0.725 0 0 1 36.201 51 A 1.297 1.297 0 0 1 35.788 50.94 Q 35.212 50.746 35.201 49.931 A 2.37 2.37 0 0 1 35.201 49.9 Q 35.389 49.806 35.844 48.869 A 18.24 18.24 0 0 0 35.901 48.75 A 37.551 37.551 0 0 1 36.262 48.012 Q 36.551 47.438 36.801 47 L 37.201 47 Q 37.631 47 38.8 44.374 A 52.42 52.42 0 0 0 39.201 43.45 A 160.093 160.093 0 0 0 39.552 42.612 Q 40.693 39.868 40.701 39.505 A 0.228 0.228 0 0 0 40.701 39.5 Q 40.399 39.726 39.757 40.038 A 17.757 17.757 0 0 1 39.301 40.25 A 15.676 15.676 0 0 1 38.95 40.403 Q 38.244 40.7 38.001 40.7 A 0.18 0.18 0 0 1 37.933 40.685 Q 37.876 40.662 37.805 40.601 A 1.049 1.049 0 0 1 37.751 40.55 Q 37.601 40.4 37.601 40.3 L 40.701 38.3 Q 40.793 38.116 41.012 37.72 A 50.699 50.699 0 0 1 41.051 37.65 Q 41.278 37.241 41.464 37.204 A 0.187 0.187 0 0 1 41.501 37.2 A 0.955 0.955 0 0 1 41.685 37.219 Q 41.81 37.244 41.951 37.3 Q 42.157 37.382 42.261 37.465 A 0.459 0.459 0 0 1 42.301 37.5 Q 44.201 36.5 45.201 34.6 A 9.702 9.702 0 0 0 46.274 30.828 A 11.32 11.32 0 0 0 46.301 30.4 A 0.879 0.879 0 0 0 45.577 30.756 A 1.473 1.473 0 0 0 45.401 31.05 A 2.898 2.898 0 0 1 45.279 31.287 Q 45.055 31.674 44.831 31.698 A 0.278 0.278 0 0 1 44.801 31.7 L 44.001 31.6 Q 43.401 32 41.751 32.8 Q 40.105 33.598 39.902 33.6 A 0.103 0.103 0 0 1 39.901 33.6 L 39.601 33.2 Q 40.113 32.944 42.742 31.447 A 722.89 722.89 0 0 0 43.701 30.9 L 47.401 28.9 Q 47.319 28.819 47.304 28.606 A 1.484 1.484 0 0 1 47.301 28.5 Q 47.301 28.138 47.957 27.406 A 8.92 8.92 0 0 1 48.101 27.25 Q 48.901 26.4 48.901 25.8 A 0.58 0.58 0 0 0 48.663 25.853 Q 48.587 25.887 48.511 25.942 A 1.026 1.026 0 0 0 48.501 25.95 Q 48.301 26.1 48.101 26.1 A 0.27 0.27 0 0 1 47.954 26.053 Q 47.827 25.971 47.701 25.75 A 6.963 6.963 0 0 0 47.618 25.609 Q 47.479 25.378 47.401 25.3 L 42.301 24.5 A 1.614 1.614 0 0 0 41.013 25.128 Q 40.812 25.369 40.647 25.703 A 3.949 3.949 0 0 0 40.601 25.8 Q 40.079 26.931 40.011 27.911 A 4.187 4.187 0 0 0 40.001 28.2 A 1.568 1.568 0 0 1 40.29 28.224 Q 40.801 28.321 40.801 28.8 A 0.569 0.569 0 0 1 40.684 28.839 Q 40.392 28.909 39.578 28.949 A 24.004 24.004 0 0 1 39.551 28.95 Q 38.501 29 38.001 29.2 A 1.634 1.634 0 0 1 38.058 29.43 Q 38.101 29.672 38.101 30 Q 38.101 30.8 37.601 31.4 A 5.305 5.305 0 0 1 36.776 32.202 A 4.762 4.762 0 0 1 36.501 32.4 L 29.701 35.6 A 0.384 0.384 0 0 0 29.449 35.695 A 0.618 0.618 0 0 0 29.351 35.8 Q 29.201 36 29.201 36.2 Q 29.542 36.2 31.416 35.762 A 116.809 116.809 0 0 0 32.101 35.6 L 32.401 35.9 A 2.155 2.155 0 0 1 33.335 35.288 Q 33.689 35.165 34.123 35.122 A 4.925 4.925 0 0 1 34.601 35.1 A 0.445 0.445 0 0 1 34.447 35.398 Q 33.981 35.874 32.104 36.501 A 27.976 27.976 0 0 1 31.801 36.6 A 16.927 16.927 0 0 0 31.172 36.769 Q 29.96 37.122 29.819 37.422 A 0.182 0.182 0 0 0 29.801 37.5 A 1.238 1.238 0 0 0 29.835 37.774 Q 29.896 38.044 30.069 38.392 A 5.207 5.207 0 0 0 30.151 38.55 Q 30.501 39.2 30.901 39.5 Q 31.605 38.655 32.16 38.405 A 1.076 1.076 0 0 1 32.601 38.3 A 0.956 0.956 0 0 1 32.77 38.314 Q 32.862 38.331 32.935 38.367 A 0.445 0.445 0 0 1 33.051 38.45 Q 33.201 38.6 33.201 38.7 Q 34.601 38.7 37.001 37.9 Q 39.4 37.3 40.404 37.214 A 3.527 3.527 0 0 1 40.701 37.2 A 1.099 1.099 0 0 1 40.443 37.519 Q 39.997 37.917 38.935 38.315 A 12.89 12.89 0 0 1 38.701 38.4 A 22.046 22.046 0 0 1 37.753 38.712 Q 36.853 38.984 36.208 39.075 A 5.27 5.27 0 0 1 36.001 39.1 L 36.001 38.7 A 8.429 8.429 0 0 1 32.509 39.843 A 10.483 10.483 0 0 1 31.401 39.9 A 13.891 13.891 0 0 0 31.675 42.724 A 10.665 10.665 0 0 0 32.651 45.5 A 9.756 9.756 0 0 0 33.199 46.434 Q 33.815 47.349 34.442 47.693 A 1.565 1.565 0 0 0 35.201 47.9 L 35.801 47.8 Q 35.725 48.18 35.332 48.818 A 10.615 10.615 0 0 1 35.051 49.25 A 4.966 4.966 0 0 1 34.773 49.62 Q 34.484 49.968 34.228 50.107 A 0.687 0.687 0 0 1 33.901 50.2 A 0.734 0.734 0 0 1 33.487 50.031 Q 32.75 49.494 31.499 47.26 A 37.267 37.267 0 0 1 31.301 46.9 Q 29.501 43.6 26.901 38.1 L 25.401 35.1 A 10.853 10.853 0 0 1 24.935 34.25 Q 24.464 33.303 23.932 31.901 A 49.163 49.163 0 0 1 23.601 31 A 24.375 24.375 0 0 0 22.884 28.959 Q 22.038 26.875 21.001 25.7 A 10.125 10.125 0 0 0 20.545 27.333 Q 20.212 29.017 20.201 31.348 A 33.742 33.742 0 0 0 20.201 31.5 Q 20.201 33.369 20.491 34.852 A 12.608 12.608 0 0 0 20.501 34.9 Q 20.651 36.106 20.689 36.801 A 7.589 7.589 0 0 1 20.701 37.2 A 7.561 7.561 0 0 1 20.624 38.169 Q 20.397 39.879 19.494 43.192 A 118.958 118.958 0 0 1 19.101 44.6 A 77.173 77.173 0 0 0 18.377 47.076 Q 17.401 50.657 17.401 52.4 Q 17.401 52.907 17.472 53.2 A 1.265 1.265 0 0 0 17.501 53.3 L 15.501 63.2 L 15.601 64.3 Q 15.601 65.422 15.154 65.911 A 1.108 1.108 0 0 1 15.001 66.05 A 2.525 2.525 0 0 1 14.196 66.461 A 2.34 2.34 0 0 1 13.701 66.55 Q 13.001 66.6 12.701 66.7 L 2.101 66.9 A 5.075 5.075 0 0 1 1.387 66.854 Q 0.001 66.656 0.001 65.6 Q 0.001 64.932 0.489 63.845 A 11.941 11.941 0 0 1 0.701 63.4 Q 1.162 62.323 1.269 61.66 A 2.29 2.29 0 0 0 1.301 61.3 L 0.501 62 A 32.567 32.567 0 0 1 0.694 60.819 Q 1.051 58.85 1.801 55.7 A 129.857 129.857 0 0 0 2.344 53.216 Q 2.751 51.263 3.001 49.7 Q 3.401 47.2 3.401 44.7 A 20.667 20.667 0 0 1 3.527 42.468 A 26.415 26.415 0 0 1 3.801 40.6 A 903.536 903.536 0 0 0 3.94 39.831 Q 4.209 38.345 4.294 37.838 A 25.323 25.323 0 0 0 4.301 37.8 Q 5.118 33.879 5.267 31.493 A 15.939 15.939 0 0 0 5.301 30.5 A 35.267 35.267 0 0 1 5.467 27.25 Q 5.781 23.882 6.688 19.398 A 123.985 123.985 0 0 1 7.001 17.9 A 47.202 47.202 0 0 0 7.36 16.249 Q 7.52 15.449 7.68 14.537 A 104.61 104.61 0 0 0 8.001 12.6 A 67.747 67.747 0 0 1 8.056 12.118 Q 8.149 11.337 8.331 9.895 A 879.036 879.036 0 0 1 8.451 8.95 Q 8.801 6.2 9.601 3.65 A 9.511 9.511 0 0 1 9.939 2.727 Q 10.326 1.832 10.79 1.429 A 1.218 1.218 0 0 1 11.601 1.1 Q 12.301 1.1 13.001 0.95 A 6.787 6.787 0 0 1 14.01 0.815 A 8.055 8.055 0 0 1 14.501 0.8 A 6.217 6.217 0 0 1 14.904 0.814 Q 15.128 0.829 15.384 0.859 A 12.701 12.701 0 0 1 15.701 0.9 Q 16.401 1 17.301 1 Q 17.843 1 18.711 0.837 A 16.61 16.61 0 0 0 18.901 0.8 A 41.389 41.389 0 0 1 19.938 2.481 Q 21.085 4.431 22.596 7.342 A 221.586 221.586 0 0 1 24.101 10.3 A 3.813 3.813 0 0 0 24.196 11.089 Q 24.459 12.317 25.451 14.3 Q 26.801 17 27.701 17.8 A 0.867 0.867 0 0 0 27.84 18.245 Q 28.158 18.774 29.201 19.4 A 9.603 9.603 0 0 1 29.844 19.83 Q 30.446 20.271 30.754 20.679 A 2.081 2.081 0 0 1 30.901 20.9 Q 31.205 21.432 31.624 22.483 A 37.139 37.139 0 0 1 31.901 23.2 A 26.324 26.324 0 0 0 32.451 24.343 Q 33.14 25.681 33.751 26.4 Q 34.601 27.4 36.301 27.4 A 1.543 1.543 0 0 0 37.138 27.122 Q 38.038 26.54 39.045 24.741 A 17.681 17.681 0 0 0 39.151 24.55 A 51.183 51.183 0 0 0 40.163 22.578 Q 41.326 20.2 42.701 16.9 Q 44.301 13.4 44.701 12.6 Q 45.201 11.8 45.901 10.85 Q 46.59 9.915 46.697 9.9 A 0.024 0.024 0 0 1 46.701 9.9 L 48.201 5.6 L 51.001 0.4 L 51.401 0.1 Q 51.501 0.3 51.651 0.65 Q 51.774 0.938 51.796 1.125 A 0.649 0.649 0 0 1 51.801 1.2 A 2.554 2.554 0 0 1 51.792 1.4 Q 51.771 1.663 51.701 2.05 A 3.096 3.096 0 0 1 51.644 2.303 Q 51.575 2.56 51.475 2.709 A 0.611 0.611 0 0 1 51.401 2.8 A 4.676 4.676 0 0 0 51.871 2.774 Q 52.097 2.751 52.355 2.708 A 10.904 10.904 0 0 0 52.901 2.6 A 12.754 12.754 0 0 1 53.375 2.503 Q 53.836 2.419 54.16 2.404 A 2.923 2.923 0 0 1 54.301 2.4 A 0.646 0.646 0 0 1 54.101 2.862 Q 53.914 3.055 53.551 3.2 Q 52.943 3.443 52.435 3.489 A 2.585 2.585 0 0 1 52.201 3.5 A 8.171 8.171 0 0 0 53.35 3.785 Q 54.56 4 56.201 4 L 55.701 4.3 L 51.401 4.3 A 1.31 1.31 0 0 0 50.774 4.444 Q 50.266 4.715 50.082 5.502 A 3.242 3.242 0 0 0 50.051 5.65 A 173.025 173.025 0 0 0 49.992 5.968 Q 49.818 6.919 49.802 7.077 A 0.259 0.259 0 0 0 49.801 7.1 Q 51.201 7.1 54.351 5.9 Q 56.923 4.92 57.528 4.474 A 0.57 0.57 0 0 0 57.701 4.3 L 56.501 4.3 A 1.505 1.505 0 0 1 56.68 4.201 Q 56.987 4.053 57.6 3.861 A 18.596 18.596 0 0 1 57.801 3.8 A 7.315 7.315 0 0 1 58.894 3.557 A 5.853 5.853 0 0 1 59.701 3.5 Q 59.701 4.317 58.793 4.846 A 3.425 3.425 0 0 1 58.601 4.95 A 11.077 11.077 0 0 1 57.963 5.241 Q 57.224 5.553 56.121 5.93 A 59.762 59.762 0 0 1 55.001 6.3 A 60.266 60.266 0 0 0 53.583 6.769 Q 52.319 7.206 51.401 7.6 A 5.913 5.913 0 0 0 50.614 8.004 Q 50.229 8.243 49.951 8.517 A 2.576 2.576 0 0 0 49.501 9.1 L 48.701 9.9 L 47.401 12.3 Q 49.499 13.03 49.766 13.094 A 0.186 0.186 0 0 0 49.801 13.1 Q 50.601 13.1 52.201 12.3 A 1.403 1.403 0 0 1 52.077 12.72 A 1.075 1.075 0 0 1 51.501 13.25 A 4.333 4.333 0 0 1 50.906 13.446 Q 50.516 13.545 50.051 13.6 Q 49.497 13.665 49.092 13.773 A 3.42 3.42 0 0 0 48.701 13.9 A 0.881 0.881 0 0 1 48.491 13.972 Q 48.393 13.993 48.279 13.998 A 1.684 1.684 0 0 1 48.201 14 A 1.887 1.887 0 0 1 47.603 13.901 A 2.009 2.009 0 0 1 47.601 13.9 A 1.89 1.89 0 0 0 47.01 13.8 A 1.801 1.801 0 0 0 47.001 13.8 A 0.769 0.769 0 0 0 46.498 13.989 A 1.236 1.236 0 0 0 46.301 14.2 L 44.701 17.4 L 44.301 17.4 Q 43.501 21.3 42.301 22.9 L 43.001 23 Q 43.401 23 43.701 22.75 A 1.287 1.287 0 0 1 43.912 22.605 Q 44.051 22.53 44.19 22.508 A 0.727 0.727 0 0 1 44.301 22.5 Q 43.85 23.4 42.59 23.652 A 4.537 4.537 0 0 1 42.301 23.7 Q 44.401 24.5 46.401 24.5 A 32.937 32.937 0 0 0 47.485 24.484 Q 49.112 24.43 49.801 24.2 A 7.847 7.847 0 0 1 50.466 23.612 Q 50.803 23.344 51.212 23.066 A 18.55 18.55 0 0 1 52.101 22.5 Q 53.601 21.6 54.001 21.3 A 47.094 47.094 0 0 0 55.917 20.199 Q 57.863 19.016 59.101 17.95 Q 60.901 16.4 60.901 14.3 A 9.132 9.132 0 0 0 60.876 13.669 Q 60.825 12.951 60.673 11.903 A 52.913 52.913 0 0 0 60.501 10.8 Q 60.171 8.987 60.113 7.853 A 8.902 8.902 0 0 1 60.101 7.4 A 11.319 11.319 0 0 1 60.119 6.787 Q 60.162 6.013 60.301 4.9 Q 60.501 3.3 60.501 2.5 Q 59.201 2.5 58.501 1.9 L 54.601 1.9 L 54.601 1.2 A 2.574 2.574 0 0 1 54.179 1.49 Q 53.9 1.64 53.621 1.683 A 1.455 1.455 0 0 1 53.401 1.7 A 1.102 1.102 0 0 1 53.095 1.66 A 0.733 0.733 0 0 1 52.601 1.2 A 25.691 25.691 0 0 1 53.796 0.682 Q 55.487 0.004 56.391 0 A 2.432 2.432 0 0 1 56.401 0 A 15.228 15.228 0 0 1 57.224 0.024 Q 58.145 0.075 59.374 0.228 A 49.28 49.28 0 0 1 59.551 0.25 Q 61.044 0.441 62.214 0.721 A 16.124 16.124 0 0 1 62.901 0.9 Q 61.901 1.9 61.901 5.6 Q 61.901 8.9 62.801 12.7 A 28.516 28.516 0 0 1 63.019 13.638 Q 63.222 14.582 63.279 15.235 A 5.406 5.406 0 0 1 63.301 15.7 Q 63.301 16.543 63.728 17.956 A 20.197 20.197 0 0 0 63.901 18.5 A 20.44 20.44 0 0 1 64.211 19.644 Q 64.47 20.737 64.497 21.52 A 5.163 5.163 0 0 1 64.501 21.7 A 49.495 49.495 0 0 0 65.227 30.023 A 56.166 56.166 0 0 0 65.601 32 L 66.001 34.4 A 25.879 25.879 0 0 0 66.056 34.761 Q 66.185 35.579 66.538 37.648 A 1068.749 1068.749 0 0 0 66.701 38.6 A 80.389 80.389 0 0 0 66.846 39.423 Q 67.338 42.125 67.601 42.3 L 67.901 46.2 A 5.687 5.687 0 0 0 67.949 46.97 Q 68.064 47.808 68.451 48.3 A 4.112 4.112 0 0 1 69.056 49.346 A 3.741 3.741 0 0 1 69.201 49.8 A 7.766 7.766 0 0 1 69.394 50.698 Q 69.552 51.685 69.589 53.096 A 34.446 34.446 0 0 1 69.601 54 A 0.238 0.238 0 0 1 69.765 54.138 Q 70.388 55.1 71.701 62.8 Z M 18.301 17.4 L 24.001 15.6 L 23.001 14.6 L 22.201 10.7 L 18.301 3.5 Q 17.801 3.5 17.801 2.8 L 12.701 2.8 A 0.571 0.571 0 0 0 12.446 2.553 Q 12.224 2.436 11.846 2.408 A 3.41 3.41 0 0 0 11.601 2.4 Q 10.801 2.4 10.801 2.8 L 10.801 5.6 Q 10.916 5.025 11.163 4.681 A 1.197 1.197 0 0 1 11.601 4.3 L 11.901 4.8 A 6.689 6.689 0 0 1 12.329 4.293 Q 12.819 3.773 13.256 3.594 A 1.17 1.17 0 0 1 13.701 3.5 A 0.384 0.384 0 0 1 13.952 3.595 A 0.618 0.618 0 0 1 14.051 3.7 Q 14.201 3.9 14.301 4 A 8.447 8.447 0 0 0 13.009 4.595 Q 12.044 5.15 11.451 5.9 A 4.93 4.93 0 0 0 10.675 7.338 Q 10.454 7.964 10.348 8.711 A 9.276 9.276 0 0 0 10.301 9.1 L 15.101 6.8 L 15.101 6.3 L 11.901 6.3 L 11.901 5.8 L 15.001 5.7 Q 15.801 5.6 17.501 5.6 L 17.501 7 A 2.204 2.204 0 0 1 17.24 6.983 Q 17.114 6.968 16.974 6.94 A 4.231 4.231 0 0 1 16.801 6.9 Q 16.401 6.8 16.001 6.8 A 2.446 2.446 0 0 1 15.883 6.907 Q 15.6 7.152 14.783 7.798 A 155.384 155.384 0 0 1 14.401 8.1 A 13.712 13.712 0 0 0 13.787 8.609 Q 13.217 9.114 12.925 9.518 A 2.026 2.026 0 0 0 12.701 9.9 L 14.501 10 A 24.802 24.802 0 0 0 19.089 9.561 A 27.422 27.422 0 0 0 19.401 9.5 A 3.024 3.024 0 0 1 19.035 10.417 A 2.502 2.502 0 0 1 18.001 11.35 Q 16.901 11.9 15.501 11.9 L 15.501 12.6 Q 15.408 12.6 15.188 12.472 A 3.044 3.044 0 0 1 15.151 12.45 A 1.34 1.34 0 0 0 14.988 12.366 Q 14.902 12.329 14.823 12.313 A 0.606 0.606 0 0 0 14.701 12.3 A 1.113 1.113 0 0 0 14.425 12.345 Q 13.963 12.468 13.053 12.932 A 26.551 26.551 0 0 0 12.451 13.25 Q 10.839 14.125 10.118 14.533 A 35.421 35.421 0 0 0 10.001 14.6 Q 10.701 14.5 11.401 14.35 Q 12.095 14.201 12.396 14.2 A 1.225 1.225 0 0 1 12.401 14.2 L 12.401 14.6 L 9.201 15.4 A 7.32 7.32 0 0 1 9.151 16.213 Q 9.105 16.624 9.016 17.091 A 16.388 16.388 0 0 1 8.851 17.85 A 176.577 176.577 0 0 0 8.71 18.439 Q 8.479 19.409 8.401 19.8 A 6.999 6.999 0 0 1 8.536 19.939 Q 8.777 20.194 8.799 20.284 A 0.07 0.07 0 0 1 8.801 20.3 A 1.077 1.077 0 0 1 8.781 20.489 Q 8.745 20.69 8.641 20.972 A 6.131 6.131 0 0 1 8.551 21.2 A 4.461 4.461 0 0 0 8.419 21.555 Q 8.305 21.913 8.301 22.182 A 1.301 1.301 0 0 0 8.301 22.2 Q 8.301 22.334 8.345 22.423 A 0.296 0.296 0 0 0 8.401 22.5 L 11.101 21.7 A 1.385 1.385 0 0 1 11.073 21.99 Q 11.037 22.157 10.955 22.279 A 0.652 0.652 0 0 1 10.701 22.5 Q 10.318 22.691 9.662 22.882 A 12.522 12.522 0 0 1 9.601 22.9 Q 9.065 23.053 8.646 23.206 A 8.794 8.794 0 0 0 8.401 23.3 A 0.645 0.645 0 0 0 8.176 23.641 Q 7.688 24.875 7.201 30.4 Q 7.201 31.2 7.001 32.35 A 15.041 15.041 0 0 0 6.864 33.308 Q 6.813 33.784 6.803 34.207 A 8.462 8.462 0 0 0 6.801 34.4 Q 7.301 34 8.901 33.4 Q 10.001 33 11.001 32.45 Q 11.732 32.048 12.142 31.566 A 2.41 2.41 0 0 0 12.401 31.2 L 12.701 31.6 A 4.253 4.253 0 0 1 13.507 30.706 A 3.061 3.061 0 0 1 15.501 30 L 15.501 30.4 A 0.351 0.351 0 0 1 15.413 30.604 Q 15.137 30.964 13.986 31.556 A 18.69 18.69 0 0 1 13.801 31.65 A 127.268 127.268 0 0 0 13.114 31.996 Q 12.255 32.432 11.824 32.672 A 8.127 8.127 0 0 0 11.601 32.8 L 11.601 33.2 L 13.401 33.2 A 0.363 0.363 0 0 1 13.267 33.442 Q 12.799 33.9 10.701 34.6 Q 8.507 35.331 7.567 35.468 A 2.608 2.608 0 0 1 7.201 35.5 L 7.201 35.1 A 1.971 1.971 0 0 0 6.555 35.869 Q 6.178 36.609 6.058 37.882 A 14.04 14.04 0 0 0 6.001 39.2 Q 6.248 39.2 6.903 38.928 A 13.073 13.073 0 0 0 7.201 38.8 A 9.903 9.903 0 0 0 8.199 38.29 A 8.086 8.086 0 0 0 8.801 37.9 Q 8.801 38.053 8.654 38.323 A 3.321 3.321 0 0 1 8.551 38.5 Q 8.303 38.897 8.301 39.096 A 0.322 0.322 0 0 0 8.301 39.1 L 8.801 39.1 L 8.801 39.6 A 22.906 22.906 0 0 0 7.976 39.614 Q 6.737 39.659 6.201 39.85 A 1.33 1.33 0 0 0 5.715 40.143 Q 5.486 40.365 5.386 40.704 A 1.706 1.706 0 0 0 5.351 40.85 Q 5.228 41.465 5.205 43.057 A 53.7 53.7 0 0 0 5.201 43.8 A 3.139 3.139 0 0 1 6.326 43.254 Q 6.898 43.1 7.601 43.1 L 9.601 43.1 A 2.971 2.971 0 0 1 9.211 43.773 A 1.83 1.83 0 0 1 7.701 44.5 A 5.565 5.565 0 0 0 6.902 44.553 Q 5.989 44.686 5.54 45.154 A 1.443 1.443 0 0 0 5.351 45.4 Q 4.91 46.121 4.823 47.738 A 15.944 15.944 0 0 0 4.801 48.6 L 5.201 49.2 A 1.79 1.79 0 0 0 5.966 49.021 Q 6.219 48.902 6.472 48.705 A 3.521 3.521 0 0 0 6.601 48.6 Q 7.301 48 7.601 47.4 L 7.601 48.2 A 1.394 1.394 0 0 0 7.785 48.186 Q 7.979 48.16 8.258 48.085 A 8.434 8.434 0 0 0 8.551 48 Q 9.153 47.815 9.541 47.801 A 1.712 1.712 0 0 1 9.601 47.8 L 10.001 48.1 A 1.34 1.34 0 0 1 9.728 48.343 Q 9.136 48.763 7.601 49.3 Q 6.14 49.756 5.346 50.213 A 4.607 4.607 0 0 0 5.201 50.3 A 1.843 1.843 0 0 0 4.729 50.711 Q 4.412 51.11 4.401 51.662 A 1.996 1.996 0 0 0 4.401 51.7 A 0.477 0.477 0 0 0 4.541 52.04 A 0.627 0.627 0 0 0 4.551 52.05 A 0.523 0.523 0 0 0 4.705 52.159 A 0.47 0.47 0 0 0 4.901 52.2 A 6.271 6.271 0 0 1 5.496 51.813 Q 6.138 51.45 6.66 51.406 A 1.684 1.684 0 0 1 6.801 51.4 L 6.801 52.2 A 3.836 3.836 0 0 0 7.372 52.16 Q 8.041 52.059 8.401 51.7 L 8.401 52.2 A 24.763 24.763 0 0 0 7.368 52.642 Q 6.845 52.879 6.277 53.162 A 39.84 39.84 0 0 0 6.201 53.2 L 4.401 54.1 Q 4.101 55 3.551 56.95 Q 3.13 58.443 2.914 59.379 A 18.334 18.334 0 0 0 2.801 59.9 A 0.853 0.853 0 0 0 2.979 60.423 A 1.07 1.07 0 0 0 3.001 60.45 A 10.543 10.543 0 0 0 3.094 60.566 Q 3.226 60.725 3.301 60.8 L 7.601 59.2 Q 7.601 58.75 9.83 57.529 A 37.923 37.923 0 0 1 10.351 57.25 Q 12.597 56.066 13.542 55.515 A 13.717 13.717 0 0 0 13.901 55.3 L 14.301 55.3 A 1.796 1.796 0 0 1 14.291 55.319 Q 14.003 55.878 13.273 56.339 A 5.866 5.866 0 0 1 12.601 56.7 A 15.27 15.27 0 0 0 12.134 56.969 Q 11.716 57.221 11.45 57.428 A 3.248 3.248 0 0 0 11.301 57.55 Q 10.901 57.9 10.901 58.5 L 9.601 58.5 L 10.001 59.2 Q 9.488 59.2 7.115 60.112 A 85.876 85.876 0 0 0 6.251 60.45 A 115.035 115.035 0 0 0 5.508 60.748 Q 3.552 61.54 2.993 61.866 A 1.02 1.02 0 0 0 2.801 62 Q 2.43 62.742 2.403 64.86 A 26.763 26.763 0 0 0 2.401 65.2 A 1.119 1.119 0 0 0 2.851 65.097 Q 3.27 64.913 3.751 64.4 Q 4.501 63.6 5.151 63.1 A 2.162 2.162 0 0 1 5.825 62.758 Q 6.13 62.662 6.5 62.624 A 4.95 4.95 0 0 1 7.001 62.6 L 8.401 62.8 L 8.401 63.6 Q 7.014 63.947 6.228 64.293 A 5.229 5.229 0 0 0 6.001 64.4 L 5.851 64.55 Q 5.701 64.7 5.601 64.7 L 11.101 64.7 L 11.601 64.4 A 0.453 0.453 0 0 0 11.87 64.709 Q 12.055 64.794 12.359 64.8 A 2.356 2.356 0 0 0 12.401 64.8 A 0.926 0.926 0 0 0 13.051 64.533 A 1.479 1.479 0 0 0 13.251 64.3 Q 13.601 63.8 13.601 63.2 L 12.401 63.2 A 5.178 5.178 0 0 1 12.517 62.936 Q 12.715 62.512 13.128 61.749 A 68.079 68.079 0 0 1 13.401 61.25 A 12.728 12.728 0 0 0 13.795 60.478 Q 14.156 59.702 14.267 59.124 A 2.924 2.924 0 0 0 14.301 58.9 Q 13.501 58.9 12.701 59.7 L 11.901 60 A 2.233 2.233 0 0 1 11.938 59.575 Q 12.031 59.099 12.351 58.85 Q 12.725 58.559 13.514 58.268 A 11.305 11.305 0 0 1 13.851 58.15 Q 14.751 57.85 15.026 57.366 A 0.929 0.929 0 0 0 15.101 57.2 A 1.945 1.945 0 0 0 15.182 56.918 Q 15.34 56.218 15.498 54.331 A 72.94 72.94 0 0 0 15.501 54.3 Q 15.73 51.927 15.96 50.462 A 23.287 23.287 0 0 1 16.101 49.65 A 6.122 6.122 0 0 1 16.257 49.012 Q 16.455 48.371 16.755 48.05 A 1.03 1.03 0 0 1 17.101 47.8 L 17.001 47.3 A 4.481 4.481 0 0 1 17.08 46.481 A 5.904 5.904 0 0 1 17.251 45.8 A 12.533 12.533 0 0 0 17.348 45.474 Q 17.485 44.988 17.499 44.75 A 0.871 0.871 0 0 0 17.501 44.7 A 18.931 18.931 0 0 1 17.592 43.809 Q 17.717 42.815 17.965 41.49 A 61.368 61.368 0 0 1 18.001 41.3 A 68.27 68.27 0 0 0 18.054 40.917 Q 18.14 40.289 18.298 39.089 A 1023.475 1023.475 0 0 0 18.401 38.3 A 36.766 36.766 0 0 0 18.643 35.807 A 29.422 29.422 0 0 0 18.701 34 A 1.854 1.854 0 0 0 18.683 33.731 Q 18.616 33.279 18.301 33.2 L 18.301 32 Q 17.789 32 17.568 31.871 A 0.301 0.301 0 0 1 17.401 31.6 A 0.193 0.193 0 0 1 17.411 31.544 Q 17.438 31.457 17.537 31.299 A 3.801 3.801 0 0 1 17.601 31.2 Q 17.801 30.9 17.901 30.8 L 18.601 31.2 L 18.601 29.1 Q 18.501 29.2 17.701 29.5 A 9.816 9.816 0 0 0 17.379 29.626 Q 16.938 29.81 16.758 29.95 A 0.615 0.615 0 0 0 16.701 30 L 16.301 29.9 L 16.301 29.2 L 15.501 29.2 Q 15.801 29.2 16.651 28.55 Q 17.501 27.9 17.901 27.6 L 17.901 28.1 A 1.559 1.559 0 0 0 18.739 27.369 Q 19.338 26.361 19.395 24.088 A 19.626 19.626 0 0 0 19.401 23.6 A 2.472 2.472 0 0 1 20.123 21.867 Q 20.468 21.498 20.978 21.174 A 6.915 6.915 0 0 1 21.651 20.8 A 12.494 12.494 0 0 1 23.355 20.108 Q 24.301 19.809 25.176 19.729 A 6.887 6.887 0 0 1 25.801 19.7 A 0.847 0.847 0 0 1 26.078 19.75 Q 26.189 19.788 26.307 19.857 A 1.854 1.854 0 0 1 26.451 19.95 A 1.715 1.715 0 0 0 26.675 20.087 Q 26.799 20.15 26.917 20.178 A 0.795 0.795 0 0 0 27.101 20.2 Q 27.101 19.3 25.651 18.05 Q 24.315 16.898 24.125 16.723 A 0.913 0.913 0 0 1 24.101 16.7 A 0.468 0.468 0 0 0 23.982 16.725 Q 23.694 16.812 22.855 17.207 A 48.51 48.51 0 0 0 22.451 17.4 A 51.952 51.952 0 0 1 21.641 17.781 Q 20.72 18.207 19.439 18.765 A 216.498 216.498 0 0 1 18.201 19.3 A 0.089 0.089 0 0 0 18.255 19.277 Q 18.318 19.227 18.398 19.065 A 2.45 2.45 0 0 0 18.451 18.95 Q 18.601 18.6 18.601 17.8 Q 18.601 17.6 18.451 17.5 L 18.301 17.4 Z M 56.201 40.9 L 56.401 43.4 A 55.663 55.663 0 0 0 56.457 44.472 Q 56.52 45.473 56.608 46.158 A 10.152 10.152 0 0 0 56.701 46.75 Q 56.901 47.8 57.801 47.8 Q 58.064 47.8 58.405 47.491 A 2.688 2.688 0 0 0 58.501 47.4 L 58.501 48.4 L 60.901 48.7 A 1.048 1.048 0 0 0 61.193 48.656 Q 61.365 48.606 61.551 48.5 Q 61.901 48.3 62.301 48.3 Q 62.301 49.377 58.868 49.562 A 29.365 29.365 0 0 1 57.301 49.6 A 4.676 4.676 0 0 0 57.326 50.07 Q 57.35 50.297 57.393 50.554 A 10.904 10.904 0 0 0 57.501 51.1 A 12.754 12.754 0 0 1 57.597 51.575 Q 57.681 52.036 57.697 52.36 A 2.923 2.923 0 0 1 57.701 52.5 Q 59.149 52.114 62.184 49.909 A 53.942 53.942 0 0 0 62.401 49.75 A 30.446 30.446 0 0 0 63.488 48.916 Q 65.023 47.678 65.443 46.911 A 1.095 1.095 0 0 0 65.601 46.4 L 65.601 45.6 A 7.654 7.654 0 0 0 65.582 45.044 Q 65.542 44.496 65.416 44.148 A 1.42 1.42 0 0 0 65.301 43.9 Q 63.601 44.9 63.201 45 Q 63.201 44.557 63.554 44.31 A 1.111 1.111 0 0 1 63.651 44.25 A 1.562 1.562 0 0 0 63.837 44.13 Q 64.101 43.93 64.101 43.7 Q 64.101 43.608 63.973 43.387 A 3.044 3.044 0 0 0 63.951 43.35 Q 63.801 43.1 63.701 43.1 A 0.53 0.53 0 0 1 63.837 42.891 Q 64.005 42.726 64.351 42.6 A 0.782 0.782 0 0 0 64.74 42.31 Q 64.841 42.165 64.878 41.963 A 1.439 1.439 0 0 0 64.901 41.7 A 8.267 8.267 0 0 0 64.808 40.509 Q 64.686 39.67 64.401 38.7 A 18.026 18.026 0 0 1 64.251 38.047 Q 64.189 37.75 64.126 37.413 A 38.469 38.469 0 0 1 64.001 36.7 L 63.201 36.7 L 62.501 35.9 A 4.48 4.48 0 0 0 63.133 35.858 Q 63.472 35.809 63.755 35.706 A 2.383 2.383 0 0 0 64.001 35.6 Q 63.771 34.375 63.483 32.212 A 174.978 174.978 0 0 1 63.301 30.8 L 62.501 26.1 L 61.851 26.75 Q 61.401 27.2 61.001 27.4 A 1.762 1.762 0 0 1 60.582 27.544 Q 60.319 27.6 60.001 27.6 Q 60.001 27.033 60.804 26.556 A 3.807 3.807 0 0 1 60.901 26.5 L 60.501 26.1 Q 60.501 26.016 61.347 25.65 A 28.682 28.682 0 0 1 61.701 25.5 Q 62.87 25.013 62.9 24.905 A 0.02 0.02 0 0 0 62.901 24.9 A 15.445 15.445 0 0 0 62.852 23.73 Q 62.752 22.418 62.445 20.653 A 52.643 52.643 0 0 0 62.401 20.4 A 26.73 26.73 0 0 0 62.21 19.427 Q 61.881 17.913 61.511 17.283 A 1.409 1.409 0 0 0 61.301 17 Q 60.701 17.1 58.601 18.95 Q 56.501 20.8 55.701 21.7 A 5.477 5.477 0 0 0 56.236 21.675 Q 56.604 21.639 56.901 21.55 A 5.11 5.11 0 0 1 57.187 21.473 Q 57.46 21.408 57.656 21.401 A 1.29 1.29 0 0 1 57.701 21.4 Q 60.038 21.4 60.668 21.934 A 0.594 0.594 0 0 1 60.901 22.4 A 1.16 1.16 0 0 1 60.59 22.844 Q 59.993 23.421 58.35 24.134 A 28.38 28.38 0 0 1 57.201 24.6 Q 54.201 26 53.401 26.5 A 7.259 7.259 0 0 0 53.85 26.484 Q 54.494 26.444 55.501 26.3 Q 56.901 26.1 57.701 26.1 L 57.801 26.6 Q 57.801 26.8 57.301 26.9 L 53.401 27.6 A 0.453 0.453 0 0 0 53.092 27.869 Q 53.006 28.054 53.001 28.358 A 2.356 2.356 0 0 0 53.001 28.4 Q 53.001 29.6 53.801 30 A 1.637 1.637 0 0 1 54.045 29.809 Q 54.644 29.41 56.301 28.7 Q 57.001 28.3 57.851 27.9 Q 58.694 27.503 59.685 26.909 A 29.807 29.807 0 0 0 59.701 26.9 Q 59.301 27.9 58.401 28.5 Q 57.501 29.1 56.451 29.45 Q 55.41 29.797 54.91 29.996 A 9.281 9.281 0 0 0 54.901 30 Q 54.951 30.199 55.05 30.299 A 0.339 0.339 0 0 0 55.301 30.4 L 56.001 30.3 Q 56.001 30.788 55.858 30.943 A 0.261 0.261 0 0 1 55.851 30.95 Q 55.711 31.089 55.228 31.185 A 4.801 4.801 0 0 1 55.151 31.2 A 2.408 2.408 0 0 0 54.579 31.376 A 2.042 2.042 0 0 0 54.201 31.6 A 7.626 7.626 0 0 0 54.245 32.394 Q 54.294 32.869 54.401 33.4 Q 54.601 34.4 54.601 35.1 A 5.188 5.188 0 0 1 54.805 34.983 Q 55.144 34.8 55.301 34.8 A 0.595 0.595 0 0 1 55.365 34.804 Q 55.457 34.814 55.601 34.85 A 1.248 1.248 0 0 0 55.729 34.874 Q 55.87 34.894 56.072 34.899 A 5.624 5.624 0 0 0 56.201 34.9 A 2.183 2.183 0 0 0 55.83 35.162 Q 55.622 35.348 55.511 35.565 A 1.148 1.148 0 0 0 55.401 35.9 A 3.325 3.325 0 0 1 56.128 35.974 Q 56.588 36.078 56.923 36.324 A 1.822 1.822 0 0 1 57.301 36.7 A 8.037 8.037 0 0 0 56.778 36.716 Q 56.16 36.756 55.801 36.9 A 0.718 0.718 0 0 0 55.388 37.336 Q 55.301 37.566 55.301 37.9 Q 55.301 39.1 56.101 39.1 Q 56.701 39.1 57.701 38.3 L 57.851 38.3 A 0.333 0.333 0 0 1 57.904 38.304 Q 58.001 38.32 58.001 38.4 A 1.234 1.234 0 0 1 57.685 39.223 A 1.849 1.849 0 0 1 57.451 39.45 Q 56.901 39.9 56.201 40.1 L 57.701 40.1 L 57.701 40.9 L 56.201 40.9 Z M 66.801 56.9 L 64.001 56.9 A 1.159 1.159 0 0 1 64.187 56.803 Q 64.508 56.666 65.157 56.529 A 14.051 14.051 0 0 1 65.301 56.5 Q 66.301 56.3 67.001 56.1 A 1.668 1.668 0 0 0 67.282 55.994 Q 67.701 55.787 67.701 55.4 Q 67.701 54.881 67.514 54.249 A 6.225 6.225 0 0 0 67.451 54.05 A 2.529 2.529 0 0 0 67.343 53.776 Q 67.119 53.3 66.801 53.3 A 0.985 0.985 0 0 0 66.572 53.332 Q 66.199 53.423 65.547 53.771 A 12.495 12.495 0 0 0 65.401 53.85 A 8.608 8.608 0 0 0 64.886 54.155 Q 64.288 54.541 64.001 54.9 A 7.74 7.74 0 0 1 64.006 54.597 Q 64.023 54.174 64.09 53.979 A 0.627 0.627 0 0 1 64.101 53.95 Q 64.193 53.718 64.716 53.357 A 6.318 6.318 0 0 1 64.801 53.3 A 0.885 0.885 0 0 0 64.347 53.059 A 1.094 1.094 0 0 0 64.301 53.05 A 4.666 4.666 0 0 0 64.106 53.022 Q 64.019 53.011 63.943 53.005 A 2.029 2.029 0 0 0 63.801 53 Q 63.801 52.349 64.839 52 A 4.255 4.255 0 0 1 65.001 51.95 A 9.585 9.585 0 0 1 66.012 51.711 Q 66.56 51.614 67.059 51.602 A 5.837 5.837 0 0 1 67.201 51.6 A 6.251 6.251 0 0 0 66.807 49.975 A 7.27 7.27 0 0 0 66.651 49.6 A 10.27 10.27 0 0 0 66.503 49.286 Q 66.201 48.67 66.036 48.607 A 0.1 0.1 0 0 0 66.001 48.6 A 1.403 1.403 0 0 0 65.569 48.686 Q 64.869 48.921 63.562 49.799 A 32.359 32.359 0 0 0 62.701 50.4 Q 60.242 52.17 59.331 53.07 A 6.792 6.792 0 0 0 59.301 53.1 L 60.901 53.1 A 1.431 1.431 0 0 1 60.709 53.743 Q 60.309 54.4 59.101 54.4 L 58.301 54.3 A 2.492 2.492 0 0 0 57.961 54.321 Q 57.583 54.373 57.421 54.555 A 0.5 0.5 0 0 0 57.301 54.9 Q 57.695 56.871 57.895 56.9 A 0.041 0.041 0 0 0 57.901 56.9 Q 58.29 56.9 60.003 55.954 A 42.149 42.149 0 0 0 60.101 55.9 A 27.861 27.861 0 0 1 61.001 55.389 Q 62.298 54.686 62.999 54.534 A 1.987 1.987 0 0 1 63.201 54.5 A 0.998 0.998 0 0 1 62.892 55.225 A 1.468 1.468 0 0 1 62.751 55.35 A 3.724 3.724 0 0 1 62.425 55.574 Q 62.019 55.825 61.401 56.1 Q 59.601 56.9 59.301 57.7 L 60.501 57.7 A 1.608 1.608 0 0 1 60.401 58.102 A 0.98 0.98 0 0 1 59.751 58.7 Q 59.102 58.899 58.006 58.9 A 7.942 7.942 0 0 1 58.001 58.9 A 15.501 15.501 0 0 0 58.059 60.306 Q 58.267 62.577 59.221 63.066 A 1.252 1.252 0 0 0 59.801 63.2 A 108.596 108.596 0 0 0 62.799 63.162 Q 67.069 63.043 69.046 62.558 A 7.142 7.142 0 0 0 69.601 62.4 Q 69.509 61.756 69.205 60.221 A 151.024 151.024 0 0 0 69.151 59.95 A 17.681 17.681 0 0 0 68.678 58.092 A 13.933 13.933 0 0 0 68.201 56.8 Q 67.812 56.8 67.272 57.314 A 5.364 5.364 0 0 0 66.951 57.65 A 4.463 4.463 0 0 1 66.591 58.017 Q 66.192 58.375 65.841 58.468 A 0.939 0.939 0 0 1 65.601 58.5 A 2.874 2.874 0 0 1 65.96 57.679 A 2.35 2.35 0 0 1 66.801 56.9 Z M 14.701 17.7 L 15.901 17.8 Q 15.626 18.716 14.009 18.793 A 6.484 6.484 0 0 1 13.701 18.8 A 21.936 21.936 0 0 1 12.865 18.785 Q 11.143 18.719 10.857 18.356 A 0.248 0.248 0 0 1 10.801 18.2 A 5.303 5.303 0 0 1 11.577 17.337 A 4.004 4.004 0 0 1 12.651 16.65 A 7.708 7.708 0 0 1 13.656 16.304 Q 14.357 16.113 15.201 16 A 9.472 9.472 0 0 0 16.157 15.853 Q 17.12 15.651 17.684 15.267 A 2.253 2.253 0 0 0 17.901 15.1 A 6.118 6.118 0 0 0 18.594 14.448 A 7.191 7.191 0 0 0 18.851 14.15 Q 19.218 13.701 19.486 13.485 A 1.583 1.583 0 0 1 19.601 13.4 A 0.808 0.808 0 0 1 19.802 13.308 Q 20.125 13.205 20.742 13.2 A 7.834 7.834 0 0 1 20.801 13.2 Q 20.801 13.853 19.365 14.68 A 10.571 10.571 0 0 1 19.151 14.8 A 32.326 32.326 0 0 1 18.007 15.392 Q 16.67 16.053 14.824 16.847 A 103.349 103.349 0 0 1 14.701 16.9 A 106.362 106.362 0 0 0 14.05 17.182 Q 13.718 17.327 13.35 17.489 A 182.053 182.053 0 0 0 13.101 17.6 A 25.173 25.173 0 0 0 12.712 17.777 Q 12.13 18.047 11.901 18.2 A 2.813 2.813 0 0 0 12.233 18.178 Q 12.668 18.126 13.301 17.95 Q 14.081 17.733 14.56 17.704 A 2.34 2.34 0 0 1 14.701 17.7 Z M 19.201 20.2 L 20.001 20.3 A 1.77 1.77 0 0 1 19.752 21.186 Q 19.595 21.46 19.341 21.729 A 4.295 4.295 0 0 1 19.001 22.05 A 4.726 4.726 0 0 1 18.386 22.498 Q 18.043 22.705 17.712 22.806 A 2.097 2.097 0 0 1 17.101 22.9 A 0.576 0.576 0 0 1 16.942 22.88 Q 16.765 22.829 16.718 22.648 A 0.589 0.589 0 0 1 16.701 22.5 L 17.501 21.4 L 14.701 22.1 A 0.18 0.18 0 0 0 14.686 22.033 Q 14.663 21.975 14.602 21.905 A 1.049 1.049 0 0 0 14.551 21.85 Q 14.401 21.7 14.301 21.7 L 12.701 22.1 A 3.768 3.768 0 0 1 12.948 21.877 Q 13.378 21.519 14.219 20.954 A 36.277 36.277 0 0 1 14.301 20.9 A 3.207 3.207 0 0 0 13.511 21.003 A 4.067 4.067 0 0 0 13.051 21.15 A 4.479 4.479 0 0 1 12.584 21.302 Q 12.352 21.363 12.143 21.386 A 2.23 2.23 0 0 1 11.901 21.4 A 0.836 0.836 0 0 1 12.088 21.131 Q 12.459 20.754 13.451 20.35 A 93.871 93.871 0 0 1 13.769 20.221 Q 14.787 19.81 14.896 19.8 A 0.053 0.053 0 0 1 14.901 19.8 L 14.901 21.4 A 10.515 10.515 0 0 1 16.908 20.549 A 7.943 7.943 0 0 1 19.201 20.2 Z M 33.701 38.3 L 33.701 37.5 L 37.601 35.6 L 35.001 35.6 A 0.691 0.691 0 0 1 35.287 35.063 Q 35.775 34.658 37.091 34.428 A 13.258 13.258 0 0 1 37.601 34.35 Q 39.744 34.062 41.139 34.011 A 15.502 15.502 0 0 1 41.701 34 A 23.795 23.795 0 0 1 41.053 34.395 Q 40.141 34.934 38.573 35.794 A 219.409 219.409 0 0 1 37.551 36.35 Q 34.501 38 33.701 38.3 Z M 47.101 21.4 L 47.101 20.6 L 46.401 20.6 A 0.398 0.398 0 0 1 46.533 20.325 Q 46.796 20.055 47.582 19.801 A 10.051 10.051 0 0 1 48.101 19.65 A 54.534 54.534 0 0 0 48.692 19.49 Q 49.876 19.163 50.201 19 L 50.101 19.4 Q 50.101 19.969 50.55 20.088 A 0.833 0.833 0 0 0 50.601 20.1 Q 50.519 20.019 50.504 19.806 A 1.484 1.484 0 0 1 50.501 19.7 A 0.919 0.919 0 0 1 50.689 19.148 Q 50.789 19.013 50.94 18.887 A 2.089 2.089 0 0 1 51.051 18.8 A 4.313 4.313 0 0 1 51.959 18.29 A 3.929 3.929 0 0 1 52.201 18.2 A 1.321 1.321 0 0 0 52.264 18.31 Q 52.364 18.469 52.567 18.73 A 14.566 14.566 0 0 0 52.701 18.9 A 5.26 5.26 0 0 1 52.837 19.077 Q 53.101 19.438 53.101 19.6 A 0.914 0.914 0 0 1 52.817 20.244 Q 52.499 20.574 51.826 20.84 A 7.083 7.083 0 0 1 51.201 21.05 A 483.276 483.276 0 0 0 50.544 21.24 Q 49.244 21.619 49.001 21.7 Q 48.801 21.65 48.701 21.551 A 0.339 0.339 0 0 1 48.601 21.3 Q 48.601 21.004 49.477 20.123 A 15.074 15.074 0 0 1 49.501 20.1 A 1.281 1.281 0 0 0 49.124 20.162 Q 48.755 20.276 48.301 20.6 Q 47.605 21.097 47.107 21.396 A 8.898 8.898 0 0 1 47.101 21.4 Z M 10.001 28.9 L 10.301 29.2 L 10.301 30.2 Q 8.36 30.2 7.989 29.546 A 0.688 0.688 0 0 1 7.901 29.2 A 0.168 0.168 0 0 1 7.967 29.1 Q 8.257 28.831 9.801 28.1 A 60.248 60.248 0 0 0 11.31 27.321 Q 14.176 25.785 14.576 25.05 A 0.698 0.698 0 0 0 14.601 25 Q 14.768 24.581 15.567 24.513 A 3.944 3.944 0 0 1 15.901 24.5 Q 15.18 26.341 11.831 28.055 A 26.891 26.891 0 0 1 10.001 28.9 Z M 28.701 31.2 L 27.701 31.2 L 31.301 29.2 Q 31.382 29.281 31.595 29.296 A 1.484 1.484 0 0 0 31.701 29.3 Q 32.422 29.3 32.493 28.486 A 2.155 2.155 0 0 0 32.501 28.3 Q 30.001 28.5 27.901 29.25 A 6.198 6.198 0 0 0 27.082 29.604 Q 26.154 30.097 25.898 30.766 A 1.482 1.482 0 0 0 25.801 31.3 Q 25.801 32.167 26.821 33.126 A 6.423 6.423 0 0 0 26.901 33.2 Q 27.101 32.8 27.901 32.1 A 11.601 11.601 0 0 0 28.172 31.856 Q 28.667 31.394 28.699 31.222 A 0.122 0.122 0 0 0 28.701 31.2 Z M 17.901 10.3 L 17.501 10.3 Q 14.601 10.3 12.001 10.9 A 5.5 5.5 0 0 0 10.956 11.244 Q 9.401 11.953 9.401 13.5 Q 10.421 13.5 12.732 12.468 A 33.113 33.113 0 0 0 13.101 12.3 Q 13.561 12.116 14.573 11.72 A 696.14 696.14 0 0 1 14.751 11.65 A 12.648 12.648 0 0 1 15.5 11.382 Q 15.859 11.267 16.175 11.195 A 5.327 5.327 0 0 1 16.701 11.1 Q 16.783 11.183 16.935 11.197 A 0.703 0.703 0 0 0 17.001 11.2 A 0.788 0.788 0 0 0 17.336 11.122 Q 17.443 11.072 17.551 10.99 A 1.51 1.51 0 0 0 17.601 10.95 A 0.798 0.798 0 0 0 17.898 10.374 A 1.014 1.014 0 0 0 17.901 10.3 Z M 35.301 31.2 L 35.201 30.8 L 34.101 31.2 Q 32.833 31.2 30.909 32.184 A 17.417 17.417 0 0 0 30.501 32.4 A 26.096 26.096 0 0 1 29.557 32.85 Q 28.566 33.297 27.855 33.494 A 5.157 5.157 0 0 1 27.401 33.6 L 28.201 35.1 Q 28.334 35.234 28.468 35.278 A 0.419 0.419 0 0 0 28.601 35.3 A 1.481 1.481 0 0 0 28.965 35.247 Q 29.53 35.102 30.441 34.556 A 13.417 13.417 0 0 0 30.451 34.55 A 16.502 16.502 0 0 1 30.89 34.295 Q 31.571 33.914 31.921 33.826 A 0.756 0.756 0 0 1 32.101 33.8 L 34.601 32.1 A 0.541 0.541 0 0 0 34.998 31.928 A 0.862 0.862 0 0 0 35.101 31.8 A 1.301 1.301 0 0 0 35.234 31.547 A 0.959 0.959 0 0 0 35.301 31.2 Z M 15.501 42.3 L 15.901 42.7 Q 15.301 43.9 14.201 44.65 A 22.951 22.951 0 0 1 11.929 46.009 A 25.08 25.08 0 0 1 11.851 46.05 Q 10.601 46.7 10.001 47 L 9.801 46.7 A 0.366 0.366 0 0 1 9.899 46.501 Q 10.247 46.062 11.821 45.011 A 52.833 52.833 0 0 1 12.601 44.5 A 98.416 98.416 0 0 0 13.495 43.874 Q 15.257 42.625 15.501 42.3 Z M 29.801 24.7 L 29.701 24.4 A 2.01 2.01 0 0 1 29.305 24.542 Q 28.691 24.7 27.601 24.7 A 14.647 14.647 0 0 0 26.664 24.787 Q 26.191 24.847 25.793 24.936 A 5.825 5.825 0 0 0 25.051 25.15 A 1.849 1.849 0 0 0 24.602 25.383 Q 24.101 25.746 24.101 26.4 A 1.121 1.121 0 0 0 24.118 26.584 Q 24.151 26.778 24.245 27.057 A 7.192 7.192 0 0 0 24.351 27.35 Q 24.582 27.952 24.599 28.339 A 1.372 1.372 0 0 1 24.601 28.4 A 1.147 1.147 0 0 1 24.747 28.289 Q 25.249 27.949 27.294 26.804 A 585.364 585.364 0 0 1 27.301 26.8 Q 29.779 25.412 29.8 24.712 A 0.397 0.397 0 0 0 29.801 24.7 Z M 52.501 25.1 A 3.873 3.873 0 0 0 52.505 25.287 Q 52.521 25.62 52.601 25.7 A 17.125 17.125 0 0 1 53.688 25.011 Q 54.282 24.663 54.986 24.301 A 37.526 37.526 0 0 1 56.001 23.8 A 117.242 117.242 0 0 1 56.914 23.37 Q 58.047 22.842 58.662 22.593 A 10.153 10.153 0 0 1 58.901 22.5 Q 58.701 22.4 58.201 22.25 A 4.001 4.001 0 0 0 57.797 22.15 Q 57.532 22.1 57.301 22.1 Q 56.344 22.274 54.821 23.053 A 23.092 23.092 0 0 0 54.351 23.3 Q 52.691 24.197 52.52 24.933 A 0.736 0.736 0 0 0 52.501 25.1 Z M 57.301 12.2 L 57.301 13.4 A 2.155 2.155 0 0 0 56.932 13.438 Q 56.163 13.575 54.601 14.2 Q 53.551 14.791 52.673 14.994 A 3.875 3.875 0 0 1 51.801 15.1 L 51.801 14.2 L 52.201 14.2 L 52.201 14.6 Q 52.754 14.416 53.307 13.934 A 4.964 4.964 0 0 0 53.401 13.85 A 2.379 2.379 0 0 0 53.716 13.502 Q 53.878 13.28 53.948 13.051 A 1.202 1.202 0 0 0 54.001 12.7 Q 54.613 12.7 55.402 12.553 A 12.857 12.857 0 0 0 55.901 12.45 A 30.803 30.803 0 0 1 56.285 12.365 Q 56.867 12.241 57.149 12.21 A 1.457 1.457 0 0 1 57.301 12.2 Z M 27.401 21.4 L 26.701 21.3 A 0.978 0.978 0 0 0 26.427 21.344 Q 26.172 21.419 25.845 21.622 A 4.785 4.785 0 0 0 25.651 21.75 A 5.786 5.786 0 0 1 25.383 21.925 Q 24.968 22.179 24.737 22.198 A 0.443 0.443 0 0 1 24.701 22.2 A 0.129 0.129 0 0 1 24.643 22.184 Q 24.566 22.145 24.451 22.011 A 2.231 2.231 0 0 1 24.401 21.95 A 2.031 2.031 0 0 0 24.324 21.859 Q 24.21 21.733 24.137 21.707 A 0.108 0.108 0 0 0 24.101 21.7 Q 23.27 21.7 22.655 21.82 A 4.037 4.037 0 0 0 22.151 21.95 A 1.245 1.245 0 0 0 21.767 22.15 Q 21.475 22.382 21.416 22.784 A 1.481 1.481 0 0 0 21.401 23 A 0.489 0.489 0 0 0 21.624 23.423 Q 21.707 23.481 21.821 23.523 A 1.291 1.291 0 0 0 21.901 23.55 Q 22.356 23.686 22.397 24.113 A 0.911 0.911 0 0 1 22.401 24.2 Q 23.201 24.2 25.001 23.2 Q 26.422 22.41 27.095 21.745 A 3.133 3.133 0 0 0 27.401 21.4 Z M 14.201 23 L 15.001 23.8 A 3.313 3.313 0 0 0 14.611 23.871 Q 14.196 23.974 13.974 24.175 A 0.829 0.829 0 0 0 13.901 24.25 A 1.375 1.375 0 0 0 13.697 24.577 Q 13.562 24.873 13.501 25.3 L 11.601 26.1 Q 11.601 25.9 11.451 25.8 A 0.596 0.596 0 0 0 11.171 25.703 A 0.75 0.75 0 0 0 11.101 25.7 Q 10.881 25.7 10.607 25.808 A 2.536 2.536 0 0 0 10.401 25.9 A 1.492 1.492 0 0 1 10.112 26.005 Q 9.751 26.1 9.201 26.1 A 1.453 1.453 0 0 1 9.638 25.213 Q 10.039 24.805 10.801 24.5 A 0.746 0.746 0 0 0 10.945 24.553 Q 11.126 24.6 11.401 24.6 Q 12.401 24.6 13.151 23.9 Q 13.8 23.294 14.112 23.063 A 2.201 2.201 0 0 1 14.201 23 Z M 62.402 30.662 A 2.8 2.8 0 0 0 62.501 29.9 Q 61.932 29.9 60.67 31.154 A 20.391 20.391 0 0 0 60.051 31.8 Q 58.301 33.7 57.701 34.4 A 3.556 3.556 0 0 1 58.134 34.035 Q 58.411 33.835 58.762 33.647 A 8.528 8.528 0 0 1 59.501 33.3 Q 60.651 32.581 61.336 32.043 A 7.441 7.441 0 0 0 61.801 31.65 A 2.1 2.1 0 0 0 62.402 30.662 Z M 36.801 41.1 L 34.901 42.7 L 34.901 43.2 A 1.568 1.568 0 0 1 35.19 43.224 Q 35.701 43.321 35.701 43.8 A 0.39 0.39 0 0 1 35.63 44.016 Q 35.503 44.208 35.151 44.4 A 3.322 3.322 0 0 1 34.822 44.558 Q 34.476 44.7 34.201 44.7 A 0.769 0.769 0 0 1 33.698 44.511 A 1.236 1.236 0 0 1 33.501 44.3 Q 33.201 43.9 33.201 43.4 Q 33.201 42.9 34.751 41.6 A 20.072 20.072 0 0 1 35.295 41.158 Q 36.394 40.3 36.801 40.3 L 36.801 41.1 Z M 56.401 11.1 L 56.401 9.9 L 53.601 9.9 Q 53.601 9.413 54.491 9.222 A 4.681 4.681 0 0 1 54.951 9.15 A 19.67 19.67 0 0 1 55.887 9.071 Q 56.86 9.01 58.165 9.001 A 66.388 66.388 0 0 1 58.601 9 A 2.029 2.029 0 0 1 58.158 10.264 A 2.694 2.694 0 0 1 58.001 10.45 Q 57.401 11.1 56.401 11.1 Z M 9.201 56.1 L 8.801 56.9 L 5.601 58 L 5.201 57.7 Q 5.101 58.1 4.301 58.1 A 0.529 0.529 0 0 1 4.362 57.884 Q 4.583 57.418 5.601 56.4 A 2.493 2.493 0 0 1 5.876 56.561 A 2.956 2.956 0 0 1 6.001 56.65 A 2.776 2.776 0 0 0 6.269 56.829 A 2.352 2.352 0 0 0 6.401 56.9 A 3.539 3.539 0 0 0 6.921 56.859 Q 7.326 56.798 7.801 56.65 A 11.259 11.259 0 0 0 8.507 56.405 Q 8.835 56.278 9.12 56.14 A 6.866 6.866 0 0 0 9.201 56.1 Z M 57.001 17 L 55.201 18.2 Q 55.201 17.456 55.422 16.934 A 2.02 2.02 0 0 1 55.601 16.6 Q 56.001 16 56.001 15.3 Q 56.101 15.3 56.301 15.5 A 0.902 0.902 0 0 1 56.404 15.622 Q 56.455 15.695 56.479 15.767 A 0.419 0.419 0 0 1 56.501 15.9 L 59.301 15.9 L 59.201 16.3 A 4.004 4.004 0 0 0 58.105 16.444 A 3.203 3.203 0 0 0 57.001 17 Z M 26.901 28.4 L 27.401 28.5 A 1.679 1.679 0 0 0 27.674 28.471 Q 28.147 28.39 29.116 28.078 A 39.482 39.482 0 0 0 29.801 27.85 A 70.396 70.396 0 0 0 30.246 27.696 Q 31.607 27.22 31.695 27.113 A 0.022 0.022 0 0 0 31.701 27.1 A 2.228 2.228 0 0 0 31.669 26.705 Q 31.541 26 30.901 26 Q 30.273 26 29.5 26.389 A 6.67 6.67 0 0 0 28.801 26.8 A 12.718 12.718 0 0 0 27.971 27.4 Q 27.338 27.9 26.901 28.4 Z M 57.201 44 L 57.301 43.4 L 57.701 44.2 A 0.826 0.826 0 0 1 57.783 43.859 Q 57.957 43.476 58.501 43 A 12.677 12.677 0 0 1 58.725 42.808 Q 59.287 42.339 59.391 42.393 A 0.038 0.038 0 0 1 59.401 42.4 Q 59.401 42.7 59.001 43.15 Q 58.601 43.6 58.501 43.9 L 59.701 44.2 A 0.088 0.088 0 0 1 59.676 44.251 Q 59.585 44.363 59.151 44.6 A 4.432 4.432 0 0 1 58.646 44.837 A 3.239 3.239 0 0 1 58.101 45 A 2.233 2.233 0 0 1 57.86 44.988 Q 57.611 44.961 57.473 44.872 A 0.376 0.376 0 0 1 57.351 44.75 Q 57.201 44.5 57.201 44 Z M 25.401 23.4 L 25.401 24.2 A 14.42 14.42 0 0 0 26.421 24.162 Q 26.94 24.125 27.513 24.052 A 24.485 24.485 0 0 0 27.901 24 A 5.112 5.112 0 0 0 28.376 23.911 Q 29.301 23.688 29.301 23.2 A 0.526 0.526 0 0 0 29.279 23.058 Q 29.241 22.924 29.138 22.758 A 2.165 2.165 0 0 0 29.101 22.7 A 0.992 0.992 0 0 1 28.983 22.446 Q 28.901 22.184 28.901 21.8 Q 28.264 21.8 27.595 22.307 A 4.264 4.264 0 0 0 27.251 22.6 A 3.246 3.246 0 0 1 26.564 23.103 A 2.426 2.426 0 0 1 25.401 23.4 Z M 47.101 16.3 L 46.301 16.2 L 50.501 14.4 Q 50.601 14.4 50.751 14.5 A 0.931 0.931 0 0 0 50.83 14.548 Q 50.912 14.591 50.975 14.599 A 0.22 0.22 0 0 0 51.001 14.6 A 1.263 1.263 0 0 1 50.728 14.95 Q 50.288 15.362 49.301 15.75 A 12.404 12.404 0 0 1 48.561 16.016 Q 47.866 16.239 47.362 16.287 A 2.765 2.765 0 0 1 47.101 16.3 Z M 33.516 29.902 A 3.846 3.846 0 0 0 33.701 30 Q 33.401 30.6 32.551 30.95 A 8.64 8.64 0 0 1 31.769 31.228 A 10.839 10.839 0 0 1 30.651 31.5 A 82.462 82.462 0 0 0 30.298 31.568 Q 29.756 31.674 29.433 31.746 A 9.446 9.446 0 0 0 29.201 31.8 Q 29.201 31.625 30.387 30.838 A 33.727 33.727 0 0 1 30.751 30.6 Q 31.871 29.877 32.599 29.677 A 1.912 1.912 0 0 1 33.101 29.6 A 1.169 1.169 0 0 0 33.119 29.618 Q 33.168 29.665 33.229 29.713 A 2.009 2.009 0 0 0 33.351 29.8 A 2.312 2.312 0 0 0 33.353 29.802 Q 33.428 29.852 33.516 29.902 Z M 11.901 49.8 L 11.801 49.5 A 1.336 1.336 0 0 1 11.962 48.886 Q 12.185 48.455 12.712 47.997 A 6.062 6.062 0 0 1 12.951 47.8 Q 14.068 46.926 14.949 46.901 A 1.822 1.822 0 0 1 15.001 46.9 Q 15.001 47.6 14.551 48 A 2.386 2.386 0 0 1 14.226 48.238 Q 13.875 48.456 13.329 48.675 A 10.884 10.884 0 0 1 13.001 48.8 Q 11.901 49.2 11.901 49.8 Z M 13.163 40.686 A 1.83 1.83 0 0 0 13.401 40.7 A 2.448 2.448 0 0 0 13.85 40.658 Q 14.547 40.528 15.301 40 A 2.958 2.958 0 0 0 15.767 39.601 A 1.852 1.852 0 0 0 16.301 38.3 A 10.674 10.674 0 0 0 16.13 38.387 Q 15.757 38.582 15.353 38.829 A 18.667 18.667 0 0 0 14.551 39.35 A 8.841 8.841 0 0 1 13.7 39.867 A 6.588 6.588 0 0 1 12.701 40.3 A 0.322 0.322 0 0 0 12.793 40.538 Q 12.907 40.652 13.163 40.686 Z M 14.401 14.4 L 14.401 13.9 Q 16.652 13.9 17.818 13.418 A 2.814 2.814 0 0 0 18.401 13.1 A 2.438 2.438 0 0 1 17.359 14.075 A 3.051 3.051 0 0 1 17.201 14.15 Q 16.401 14.5 15.501 14.5 A 10.096 10.096 0 0 1 15.142 14.494 Q 14.646 14.476 14.417 14.405 A 0.835 0.835 0 0 1 14.401 14.4 Z M 61.101 61.971 A 9.754 9.754 0 0 0 60.801 62.2 Q 61.001 62.4 61.201 62.4 A 0.716 0.716 0 0 0 61.307 62.392 Q 61.902 62.303 63.001 61.25 A 37.86 37.86 0 0 1 63.14 61.117 Q 64.004 60.298 64.357 60.074 A 0.708 0.708 0 0 1 64.501 60 A 0.866 0.866 0 0 0 64.299 60.028 Q 63.885 60.129 63.127 60.594 A 15.271 15.271 0 0 0 62.651 60.9 Q 61.636 61.577 61.101 61.971 Z M 10.001 55.7 L 13.101 54.1 L 13.501 54.5 A 2.97 2.97 0 0 1 13.08 54.907 Q 12.605 55.289 11.851 55.65 A 8.637 8.637 0 0 1 11.239 55.916 Q 10.504 56.2 10.001 56.2 L 10.001 55.7 Z M 12.401 39.1 L 12.701 38.7 L 12.401 38.3 A 2.327 2.327 0 0 1 12.839 38.028 Q 13.071 37.915 13.357 37.827 A 5.491 5.491 0 0 1 13.851 37.7 Q 14.578 37.547 15.159 37.511 A 5.549 5.549 0 0 1 15.501 37.5 L 15.501 37.9 A 0.237 0.237 0 0 1 15.426 38.056 Q 15.201 38.3 14.301 38.6 A 21.253 21.253 0 0 1 13.732 38.781 Q 12.926 39.025 12.401 39.1 Z M 11.601 30 L 11.101 29.7 L 11.101 29.2 Q 11.275 29.113 11.794 29.025 A 11.087 11.087 0 0 1 11.951 29 Q 12.509 28.914 12.957 28.902 A 5.325 5.325 0 0 1 13.101 28.9 A 3.966 3.966 0 0 1 13.751 28.957 Q 14.07 29.01 14.421 29.113 A 7.57 7.57 0 0 1 14.701 29.2 Q 14.53 29.2 13.666 29.309 A 86.125 86.125 0 0 0 13.351 29.35 A 5.246 5.246 0 0 0 12.686 29.478 Q 12.013 29.656 11.601 30 Z M 53.801 11.6 L 52.201 11.5 A 2.136 2.136 0 0 1 52.589 11.354 Q 52.786 11.299 53.016 11.27 A 4.055 4.055 0 0 1 53.201 11.25 A 3.826 3.826 0 0 0 53.73 11.17 A 2.813 2.813 0 0 0 54.251 11 A 1.2 1.2 0 0 0 54.854 10.406 A 1.598 1.598 0 0 0 54.901 10.3 Q 55.701 10.6 55.701 11 Q 55.701 11.6 53.801 11.6 Z M 53.901 16.7 L 50.201 16.7 Q 50.863 16.038 52.074 15.924 A 5.627 5.627 0 0 1 52.601 15.9 Q 52.901 15.9 53.401 16.1 A 1.192 1.192 0 0 1 53.619 16.213 Q 53.737 16.291 53.805 16.389 A 0.53 0.53 0 0 1 53.901 16.7 Z M 10.801 48.4 L 10.801 47.8 Q 10.801 47.7 11.901 47.15 Q 13.001 46.6 13.501 46.5 L 13.901 46.6 A 6.114 6.114 0 0 1 13.043 47.51 Q 12.47 47.997 11.853 48.217 A 3.105 3.105 0 0 1 10.801 48.4 Z M 13.322 50.542 A 3.046 3.046 0 0 0 12.801 50.5 A 4.039 4.039 0 0 0 12.546 50.508 Q 12.129 50.534 11.896 50.652 A 0.479 0.479 0 0 0 11.601 51.1 A 4.48 4.48 0 0 0 11.624 51.567 Q 11.651 51.83 11.712 52.049 A 1.827 1.827 0 0 0 11.901 52.5 Q 12.401 52.4 13.051 51.85 A 2.672 2.672 0 0 1 13.503 51.537 A 1.864 1.864 0 0 1 14.401 51.3 A 0.807 0.807 0 0 0 14.114 50.857 A 1.186 1.186 0 0 0 13.851 50.7 A 2.241 2.241 0 0 0 13.322 50.542 Z M 9.201 42.3 L 9.001 41.9 A 1.455 1.455 0 0 0 9.214 41.881 Q 9.587 41.824 10.299 41.598 A 21.948 21.948 0 0 0 10.601 41.5 Q 11.538 41.188 12.109 41.119 A 2.471 2.471 0 0 1 12.401 41.1 A 1.207 1.207 0 0 1 12.211 41.249 Q 11.884 41.463 11.189 41.739 A 16.339 16.339 0 0 1 10.901 41.85 A 14.823 14.823 0 0 1 10.377 42.036 Q 9.631 42.284 9.248 42.299 A 1.223 1.223 0 0 1 9.201 42.3 Z M 59.955 30.212 A 0.417 0.417 0 0 0 60.101 30 A 0.459 0.459 0 0 0 60.061 29.965 Q 59.957 29.882 59.751 29.8 Q 59.61 29.744 59.485 29.719 A 0.955 0.955 0 0 0 59.301 29.7 Q 58.501 29.7 57.701 29.95 A 1.603 1.603 0 0 0 57.356 30.1 Q 57.132 30.234 57.018 30.43 A 0.919 0.919 0 0 0 56.901 30.9 Q 57.501 30.9 58.751 30.65 A 7.437 7.437 0 0 0 59.034 30.588 Q 59.702 30.427 59.955 30.212 Z M 16.006 25.013 A 2.132 2.132 0 0 0 15.901 25.7 A 3.369 3.369 0 0 1 16.099 25.609 Q 16.441 25.465 16.901 25.35 A 2.81 2.81 0 0 0 17.29 25.223 A 2.179 2.179 0 0 0 17.901 24.85 Q 18.196 24.592 18.273 24.033 A 3.171 3.171 0 0 0 18.301 23.6 Q 17.401 23.6 16.651 24.15 A 1.749 1.749 0 0 0 16.006 25.013 Z M 12.401 36.8 L 11.901 36.7 A 4.76 4.76 0 0 1 12.557 36.058 A 6.36 6.36 0 0 1 13.201 35.6 A 3.937 3.937 0 0 1 13.763 35.305 Q 14.084 35.171 14.388 35.124 A 2.075 2.075 0 0 1 14.701 35.1 L 14.701 35.8 Q 14.378 35.8 13.86 36.125 A 5.287 5.287 0 0 0 13.601 36.3 Q 12.901 36.8 12.401 36.8 Z M 10.401 52.8 L 10.801 53 L 9.601 54.5 L 9.201 54.1 A 0.322 0.322 0 0 1 9.126 54.304 Q 9.087 54.353 9.028 54.398 A 0.84 0.84 0 0 1 8.951 54.45 Q 8.725 54.586 8.621 54.599 A 0.165 0.165 0 0 1 8.601 54.6 L 8.201 54.4 A 6.092 6.092 0 0 1 8.599 53.953 Q 8.813 53.733 9.073 53.504 A 11.122 11.122 0 0 1 9.251 53.35 A 3.563 3.563 0 0 1 9.595 53.09 Q 9.987 52.833 10.317 52.804 A 0.947 0.947 0 0 1 10.401 52.8 Z M 10.001 49.8 L 10.001 50.2 L 7.601 51.4 Q 7.601 50.967 7.809 50.716 A 0.794 0.794 0 0 1 8.001 50.55 A 2.793 2.793 0 0 1 8.416 50.339 Q 8.614 50.258 8.844 50.192 A 4.975 4.975 0 0 1 9.001 50.15 Q 9.46 50.035 9.802 49.891 A 3.369 3.369 0 0 0 10.001 49.8 Z M 45.901 20.1 L 45.901 20.9 A 2.829 2.829 0 0 0 45.626 20.915 Q 45.298 20.947 44.851 21.05 A 4.697 4.697 0 0 0 44.571 21.123 Q 44.159 21.245 44.004 21.397 A 0.456 0.456 0 0 0 44.001 21.4 L 43.901 21.1 A 0.317 0.317 0 0 1 43.967 20.917 Q 44.123 20.696 44.651 20.45 A 5.224 5.224 0 0 1 45.09 20.267 Q 45.555 20.1 45.901 20.1 Z M 10.801 50.9 L 10.801 51.7 L 9.201 52.2 Q 9.801 51.3 10.801 50.9 Z M 61.701 41.5 L 62.101 41.5 Q 61.84 42.195 60.524 42.286 A 6.119 6.119 0 0 1 60.101 42.3 A 1.642 1.642 0 0 1 61.302 41.529 A 2.599 2.599 0 0 1 61.701 41.5 Z M 15.101 33.2 L 15.101 32.8 L 16.701 32 Q 16.701 32.57 16.249 32.87 A 1.277 1.277 0 0 1 16.201 32.9 Q 15.701 33.2 15.101 33.2 Z M 10.496 62.027 A 0.676 0.676 0 0 0 10.301 62 Q 10.013 62 9.751 62.232 A 1.621 1.621 0 0 0 9.551 62.45 Q 9.315 62.752 9.238 62.987 A 0.685 0.685 0 0 0 9.201 63.2 Q 9.501 63 10.051 62.9 A 1.382 1.382 0 0 0 10.36 62.808 A 0.86 0.86 0 0 0 10.801 62.4 A 0.471 0.471 0 0 0 10.796 62.334 A 0.323 0.323 0 0 0 10.651 62.1 A 0.576 0.576 0 0 0 10.496 62.027 Z M 11.101 59.7 L 11.101 60.4 Q 11.101 60.49 10.575 60.539 A 7.306 7.306 0 0 1 10.451 60.55 Q 9.982 60.586 9.748 60.7 A 0.538 0.538 0 0 0 9.601 60.8 A 9.105 9.105 0 0 1 10.058 60.371 Q 10.512 59.976 10.874 59.795 A 1.747 1.747 0 0 1 11.101 59.7 Z M 16.701 19 L 16.701 19.8 L 15.301 19.8 Q 15.301 19.457 15.706 19.261 A 1.546 1.546 0 0 1 15.851 19.2 Q 16.3 19.037 16.582 19.007 A 1.127 1.127 0 0 1 16.701 19 Z M 13.501 42.7 L 11.901 43.1 A 1.939 1.939 0 0 1 11.912 42.885 Q 11.948 42.565 12.101 42.45 Q 12.242 42.344 12.485 42.313 A 1.708 1.708 0 0 1 12.701 42.3 A 1.854 1.854 0 0 1 12.969 42.318 Q 13.422 42.384 13.501 42.7 Z M 62.101 57.2 L 62.501 57.2 A 8.943 8.943 0 0 1 62.156 57.528 Q 61.644 57.988 61.337 58.078 A 0.489 0.489 0 0 1 61.201 58.1 Q 61.067 58.1 60.978 58.055 A 0.296 0.296 0 0 1 60.901 58 A 1.729 1.729 0 0 1 61.182 57.587 A 1.206 1.206 0 0 1 62.101 57.2 Z M 59.201 46.6 L 60.201 46.6 Q 60.201 46.753 60.054 47.023 A 3.321 3.321 0 0 1 59.951 47.2 Q 59.703 47.597 59.701 47.796 A 0.322 0.322 0 0 0 59.701 47.8 A 0.656 0.656 0 0 1 59.359 47.473 Q 59.229 47.218 59.206 46.79 A 3.546 3.546 0 0 1 59.201 46.6 Z M 45.901 22 L 45.901 22.5 A 2.55 2.55 0 0 0 45.45 22.537 Q 44.979 22.622 44.701 22.9 A 3.653 3.653 0 0 1 44.982 22.528 Q 45.441 22 45.901 22 Z M 62.501 52.9 L 62.901 53 A 0.428 0.428 0 0 1 62.874 53.14 Q 62.832 53.262 62.72 53.412 A 2.072 2.072 0 0 1 62.651 53.5 A 1.556 1.556 0 0 1 62.536 53.624 Q 62.408 53.747 62.295 53.784 A 0.304 0.304 0 0 1 62.201 53.8 L 61.951 53.65 A 0.768 0.768 0 0 1 61.837 53.568 Q 61.701 53.448 61.701 53.3 A 0.453 0.453 0 0 1 61.97 52.991 Q 62.155 52.906 62.459 52.9 A 2.356 2.356 0 0 1 62.501 52.9 Z M 61.401 45.4 L 61.701 45.5 L 60.901 46.6 A 3.053 3.053 0 0 1 60.925 46.201 Q 60.981 45.776 61.17 45.563 A 0.607 0.607 0 0 1 61.401 45.4 Z" vector-effect="non-scaling-stroke"/></g></svg>
